<?xml version="1.0" standalone="no"?>
<!DOCTYPE svg PUBLIC "-//W3C//DTD SVG 20010904//EN"
 "http://www.w3.org/TR/2001/REC-SVG-20010904/DTD/svg10.dtd">
<svg version="1.0" xmlns="http://www.w3.org/2000/svg"
 width="1280.000000pt" height="1280.000000pt" viewBox="0 0 1280.000000 1280.000000"
 preserveAspectRatio="xMidYMid meet">
<metadata>
Created by potrace 1.15, written by Peter Selinger 2001-2017
</metadata>
<g transform="translate(0.000000,1280.000000) scale(0.100000,-0.100000)"
fill="#000000" stroke="none">
<path d="M7397 12767 c-1 -4 -16 -9 -32 -11 -16 -2 -31 -8 -33 -15 -2 -6 -11
-11 -20 -11 -9 0 -26 -7 -36 -15 -11 -8 -26 -15 -34 -15 -8 0 -22 -10 -33 -22
-12 -16 -18 -18 -19 -9 0 9 -11 3 -27 -16 -16 -17 -38 -34 -51 -38 -13 -3 -21
-12 -19 -18 2 -6 -14 -20 -35 -30 -24 -12 -38 -26 -38 -38 0 -12 -5 -16 -14
-13 -9 4 -18 -6 -25 -29 -7 -19 -21 -43 -31 -52 -11 -10 -20 -31 -20 -47 0
-28 -13 -37 -25 -18 -10 17 -26 0 -20 -21 4 -11 2 -19 -5 -19 -6 0 -8 -5 -4
-12 5 -7 0 -9 -14 -6 -15 4 -23 1 -27 -11 -7 -22 -87 -63 -99 -51 -4 4 -14 6
-21 4 -7 -3 -16 -1 -20 5 -9 15 -34 14 -51 -3 -9 -10 -31 -14 -62 -12 -29 1
-60 -4 -81 -15 -18 -10 -40 -15 -48 -12 -8 3 -24 1 -36 -4 -68 -31 -130 -51
-143 -46 -8 3 -14 -1 -14 -10 0 -10 -14 -17 -42 -21 -24 -3 -56 -8 -73 -11
-16 -3 -40 -6 -52 -6 -13 -1 -23 -6 -23 -11 0 -6 -7 -8 -15 -5 -8 4 -17 2 -20
-4 -4 -5 -22 -8 -40 -6 -20 3 -52 -4 -76 -14 -23 -11 -51 -19 -64 -19 -12 0
-28 -7 -36 -16 -9 -11 -22 -14 -41 -10 -20 4 -27 2 -22 -5 5 -8 -11 -9 -52 -5
-33 3 -83 8 -112 11 -30 3 -51 2 -49 -2 9 -14 -47 -12 -58 2 -8 12 -16 11 -45
-2 -19 -9 -41 -15 -47 -14 -7 1 -13 -2 -13 -7 0 -5 -11 -14 -24 -20 -18 -8
-28 -7 -44 4 -18 13 -26 13 -54 1 -48 -20 -153 -15 -179 9 -15 14 -22 15 -28
6 -4 -7 -19 -14 -32 -14 -13 -1 -28 -5 -34 -9 -12 -8 -46 -6 -61 3 -5 4 -16 3
-24 -3 -19 -11 -33 -12 -26 0 7 11 -22 23 -36 15 -10 -7 -14 -5 -110 41 -31
15 -61 24 -66 21 -4 -3 -15 4 -22 15 -8 10 -20 19 -26 19 -6 0 -23 9 -36 20
-14 10 -28 17 -31 14 -3 -3 -19 4 -36 17 -17 12 -34 20 -37 16 -4 -4 -13 1
-20 11 -7 11 -23 18 -36 17 -13 -1 -28 2 -34 7 -13 10 -246 19 -240 9 2 -3
-16 -15 -40 -25 -33 -14 -44 -23 -44 -40 0 -13 3 -26 7 -30 13 -13 11 -35 -3
-29 -10 4 -14 -3 -14 -21 0 -27 15 -35 23 -13 3 6 6 2 6 -10 1 -13 7 -23 14
-23 7 0 3 -8 -8 -16 -13 -11 -16 -18 -8 -21 7 -2 9 -11 6 -19 -4 -10 3 -14 24
-14 29 0 29 0 28 -60 0 -33 3 -60 7 -60 4 0 8 7 8 15 0 8 5 15 10 15 11 0 13
-11 4 -34 -3 -9 -13 -16 -21 -16 -11 0 -7 -7 11 -21 21 -16 24 -24 16 -39 -16
-30 -11 -37 9 -13 25 30 37 15 46 -60 6 -43 11 -57 21 -53 9 3 14 -1 14 -12 0
-10 9 -25 20 -35 19 -16 23 -30 21 -72 -2 -29 17 -54 27 -37 7 10 13 8 26 -7
10 -11 15 -24 12 -29 -10 -16 5 -44 20 -38 8 3 13 -1 12 -12 -2 -28 25 -83 39
-78 8 4 13 -3 13 -19 0 -16 6 -25 16 -25 9 0 12 -5 8 -11 -4 -7 4 -20 17 -31
18 -15 20 -18 5 -14 -14 5 -17 2 -12 -10 3 -8 6 -18 6 -20 0 -2 6 -4 14 -4 16
0 30 -43 16 -48 -16 -6 -11 -22 6 -22 11 0 13 -6 9 -19 -3 -11 1 -25 10 -34 9
-9 12 -23 8 -34 -7 -17 -6 -17 11 0 21 21 27 22 20 2 -4 -9 -1 -15 7 -15 13 0
16 -14 19 -72 1 -11 9 -18 22 -18 30 0 57 -27 51 -51 -3 -10 -11 -19 -19 -19
-17 0 -37 -37 -30 -55 3 -9 0 -12 -8 -9 -17 7 -31 -27 -15 -37 6 -4 8 -12 4
-18 -4 -7 3 -21 17 -33 12 -11 16 -18 8 -16 -8 3 -25 -4 -37 -14 -20 -19 -21
-22 -6 -44 8 -13 19 -21 24 -18 5 3 9 -6 9 -20 0 -14 5 -26 10 -26 6 0 10 -9
10 -20 0 -11 4 -20 10 -20 5 0 8 -13 7 -30 -1 -22 -7 -30 -20 -30 -27 0 -54
-29 -37 -40 7 -4 10 -15 7 -23 -3 -9 -1 -17 4 -19 6 -2 7 -11 4 -20 -4 -9 -13
-14 -21 -11 -10 4 -14 -3 -14 -25 0 -16 6 -32 13 -35 9 -3 12 -16 9 -36 -4
-30 15 -61 38 -61 6 0 8 -5 5 -10 -4 -6 -15 -8 -26 -5 -11 4 -19 2 -19 -4 0
-6 6 -11 14 -11 24 0 40 -28 26 -45 -11 -13 -14 -13 -27 0 -19 19 -33 19 -33
0 0 -8 5 -15 11 -15 22 0 41 -31 37 -60 -3 -17 -1 -30 4 -30 4 0 8 5 8 12 0 8
6 7 16 -4 18 -18 10 -42 -12 -34 -8 3 -11 0 -7 -10 3 -7 8 -14 12 -14 11 0 51
-84 51 -108 0 -11 7 -22 15 -26 8 -3 15 -15 15 -26 0 -11 6 -19 13 -17 6 1 11
-4 9 -11 -1 -7 4 -23 12 -34 11 -16 12 -26 4 -41 -8 -16 -7 -22 5 -29 9 -5 19
-25 22 -46 4 -20 9 -45 12 -56 5 -17 0 -18 -56 -11 -34 4 -85 13 -113 21 -28
7 -55 11 -59 8 -4 -2 -19 0 -34 6 -14 5 -59 15 -98 20 -116 17 -467 98 -482
111 -5 5 -16 9 -24 9 -8 0 -34 10 -59 21 -31 16 -47 18 -54 11 -16 -16 5 -38
56 -60 22 -10 124 -39 226 -64 170 -42 249 -60 400 -89 30 -6 75 -15 100 -21
25 -5 68 -13 96 -18 95 -16 136 -30 130 -46 -3 -8 1 -14 10 -14 9 0 12 -5 8
-11 -3 -6 5 -21 20 -34 l26 -22 -78 -8 c-42 -4 -111 -11 -152 -15 -41 -4 -140
-13 -220 -19 -641 -51 -737 -56 -874 -43 -119 11 -142 8 -128 -15 22 -36 293
-43 647 -18 116 8 260 17 320 20 142 7 415 24 481 30 50 5 50 5 64 -31 8 -20
23 -40 33 -45 47 -26 -4 -56 -141 -84 -146 -30 -259 -55 -292 -65 -19 -6 -60
-15 -90 -20 -30 -5 -86 -15 -125 -23 -137 -28 -231 -48 -295 -62 -91 -19 -220
-35 -319 -39 -58 -2 -86 -6 -89 -15 -13 -38 73 -40 306 -6 94 14 191 29 214
35 48 11 238 48 311 61 26 4 57 11 68 14 12 4 44 11 73 15 28 4 121 22 206 39
177 35 200 37 200 16 0 -8 -5 -15 -12 -15 -7 0 -5 -7 5 -18 17 -18 19 -62 4
-62 -5 0 -4 -7 3 -15 10 -12 10 -18 -1 -32 -11 -12 -11 -17 -2 -20 9 -3 9 -12
2 -29 -12 -33 -12 -34 5 -34 21 0 30 -20 17 -33 -8 -8 -11 -8 -11 1 0 7 -10
11 -22 11 -17 -1 -19 -2 -5 -6 18 -5 23 -18 8 -27 -5 -3 -8 -20 -7 -38 2 -23
-5 -39 -21 -56 -30 -30 -31 -78 -2 -85 12 -3 18 -10 14 -16 -3 -6 -3 -16 1
-23 10 -17 13 -99 3 -93 -4 3 -10 1 -14 -5 -3 -5 -2 -10 4 -10 6 0 15 -9 22
-21 9 -17 7 -25 -11 -44 -16 -17 -18 -24 -8 -27 8 -3 12 -18 10 -41 -3 -28 0
-37 12 -37 15 0 23 -30 15 -55 -8 -28 -3 -95 7 -95 7 0 15 -7 18 -16 8 -21 8
-26 -3 -20 -10 7 -18 -45 -13 -86 2 -16 9 -28 17 -28 9 0 12 -6 9 -15 -4 -9 0
-15 8 -15 12 0 14 -13 12 -60 -2 -44 1 -60 11 -60 19 0 12 -27 -11 -46 -19
-15 -19 -15 2 -9 31 8 48 -17 38 -57 -4 -18 -7 -37 -5 -42 1 -5 -2 -12 -8 -15
-5 -4 -4 -20 4 -44 7 -20 9 -40 4 -42 -4 -3 -4 -17 1 -30 7 -18 5 -28 -6 -40
-10 -9 -14 -26 -11 -41 2 -13 0 -27 -5 -30 -6 -4 -5 -10 3 -15 10 -6 11 -11 3
-16 -6 -5 -11 -15 -11 -23 0 -8 -4 -23 -8 -32 -4 -11 -3 -18 4 -18 6 0 11 7
11 15 0 8 5 15 11 15 5 0 7 6 3 13 -4 7 -2 7 7 -2 11 -10 11 -15 2 -18 -7 -3
-13 -11 -13 -19 0 -8 -10 -14 -24 -14 -30 0 -40 -14 -24 -32 16 -17 23 -94 9
-103 -6 -3 -11 -24 -11 -45 0 -21 -5 -42 -10 -45 -6 -4 -7 -11 -4 -17 4 -7 2
-8 -4 -4 -12 7 -64 -37 -60 -51 0 -4 -4 -21 -10 -36 -7 -15 -11 -33 -9 -39 1
-6 -9 -14 -22 -17 -14 -4 -26 -12 -29 -19 -4 -12 18 -11 64 3 7 2 10 -4 7 -16
-4 -13 -11 -18 -23 -14 -19 6 -24 -21 -8 -42 14 -18 -2 -82 -24 -98 -13 -8
-18 -20 -14 -30 3 -9 1 -15 -7 -14 -25 3 -38 -1 -32 -11 4 -6 11 -8 16 -5 5 4
9 2 9 -4 0 -5 -6 -12 -12 -14 -10 -4 -9 -8 2 -16 10 -7 11 -11 3 -11 -8 0 -13
-13 -13 -33 0 -19 -3 -37 -7 -41 -14 -13 -12 -38 3 -32 17 7 17 4 0 -38 -13
-31 -13 -112 -1 -125 4 -3 10 1 15 9 8 13 10 12 10 -2 0 -10 -11 -19 -31 -23
-23 -5 -30 -11 -26 -25 3 -14 1 -17 -11 -13 -11 5 -13 3 -6 -8 12 -20 14 -38
3 -45 -14 -8 -11 -24 6 -24 8 0 15 -5 15 -11 0 -7 -10 -9 -26 -5 -24 6 -26 5
-20 -19 4 -15 2 -25 -4 -25 -6 0 -10 -6 -8 -12 4 -21 -12 -69 -21 -64 -5 3
-11 -3 -14 -15 -6 -22 14 -36 34 -23 7 4 3 -8 -9 -28 -12 -19 -22 -43 -22 -52
0 -9 -8 -16 -20 -16 -11 0 -20 -7 -20 -15 0 -8 6 -15 13 -15 8 0 9 -2 1 -8
-21 -13 -27 -52 -10 -58 22 -8 20 -26 -1 -22 -27 4 -23 -35 5 -47 24 -11 31
-31 8 -22 -10 4 -14 0 -14 -11 1 -9 -1 -29 -5 -44 -4 -15 -3 -30 3 -33 5 -3
10 -15 10 -26 0 -10 5 -19 10 -19 6 0 10 5 10 12 0 6 3 8 6 5 13 -13 -17 -35
-39 -29 -20 5 -21 4 -8 -12 15 -18 15 -18 -14 -34 -19 -11 -18 -11 8 -12 15 0
27 -4 27 -10 0 -5 -7 -7 -15 -4 -13 5 -14 2 -5 -21 5 -14 10 -37 10 -50 0 -13
8 -29 18 -34 16 -10 15 -12 -8 -30 -14 -11 -21 -23 -17 -28 5 -4 12 -1 17 7 5
8 12 11 15 8 4 -4 -3 -15 -14 -25 -25 -21 -27 -35 -4 -26 12 5 14 3 7 -8 -5
-8 -9 -23 -9 -34 0 -15 -6 -19 -22 -17 -16 2 -23 -2 -23 -14 0 -11 6 -15 19
-11 17 4 18 1 10 -26 -6 -20 -5 -33 2 -37 7 -5 6 -15 -1 -34 -5 -15 -8 -31 -5
-36 3 -5 -4 -11 -15 -15 -21 -7 -26 -20 -11 -29 4 -3 7 -18 5 -33 -3 -26 -4
-54 -4 -127 1 -16 8 -35 17 -41 14 -11 14 -13 -4 -26 -23 -17 -25 -61 -3 -86
23 -27 20 -131 -5 -149 -10 -8 -13 -14 -7 -14 16 0 15 -27 -1 -37 -20 -12 -30
-73 -12 -73 13 0 31 -36 27 -53 -1 -4 -4 -22 -6 -40 -3 -18 -5 -34 -5 -36 -1
-2 -7 2 -15 8 -11 9 -13 6 -13 -14 0 -14 4 -28 9 -31 5 -3 0 -16 -11 -28 -23
-24 -24 -87 -2 -94 6 -2 9 -8 6 -12 -3 -5 -12 -7 -19 -4 -10 4 -12 -2 -8 -23
4 -23 6 -25 12 -8 5 15 7 16 12 3 4 -9 0 -28 -8 -43 -8 -15 -11 -31 -9 -36 3
-5 -2 -20 -12 -35 -23 -36 -24 -63 -1 -77 20 -13 24 -32 8 -42 -6 -3 -7 1 -4
10 5 11 2 14 -9 9 -9 -3 -21 -21 -27 -40 -7 -19 -15 -32 -20 -29 -12 8 -20 -8
-26 -57 -4 -24 -11 -46 -18 -51 -8 -5 -7 -10 3 -16 16 -10 6 -31 -15 -31 -8 0
-14 -7 -14 -16 0 -12 -6 -15 -24 -10 -29 7 -40 -3 -24 -22 10 -12 7 -19 -15
-38 -16 -13 -27 -33 -27 -48 0 -14 -5 -28 -12 -32 -7 -5 -9 -2 -5 9 4 11 2 14
-8 10 -16 -5 -10 -55 7 -61 4 -2 8 -8 8 -13 0 -4 -6 -6 -14 -3 -19 7 -25 -16
-16 -64 4 -23 3 -39 -1 -36 -9 5 -10 4 -14 -33 -1 -12 -5 -28 -8 -37 -4 -9 -1
-16 6 -16 9 0 9 -3 -1 -9 -7 -4 -12 -12 -11 -17 5 -27 -3 -53 -18 -59 -24 -11
-263 -15 -288 -6 -55 22 -85 28 -90 21 -3 -5 -18 -5 -33 -1 -29 9 -53 4 -64
-12 -4 -6 -12 -4 -22 6 -15 15 -20 14 -56 -2 -25 -11 -62 -17 -100 -17 -33 1
-60 -1 -60 -4 0 -8 -92 -27 -130 -26 -19 1 -37 -2 -40 -6 -3 -4 -17 -8 -32
-10 -15 -2 -30 -7 -33 -10 -3 -3 -22 -2 -41 2 -24 6 -46 4 -69 -5 -18 -8 -36
-11 -39 -7 -4 4 -12 -1 -17 -11 -13 -22 -60 -42 -120 -51 -30 -4 -55 -16 -69
-31 -13 -13 -26 -22 -30 -20 -4 3 -13 -2 -20 -10 -7 -8 -20 -15 -30 -15 -10 0
-21 -7 -24 -16 -3 -8 -11 -12 -17 -8 -6 3 -14 2 -18 -3 -3 -5 -32 -22 -64 -38
-32 -15 -63 -35 -70 -44 -7 -9 -20 -22 -30 -30 -16 -13 -20 -13 -27 -1 -5 9
-7 -4 -4 -31 4 -40 3 -42 -8 -19 -11 25 -11 25 -15 2 -3 -12 -8 -22 -13 -22
-8 0 -24 -43 -24 -70 -1 -8 -11 -19 -23 -25 -13 -5 -23 -18 -23 -27 0 -10 -7
-18 -15 -18 -13 0 -14 -4 -5 -20 9 -16 8 -20 -5 -20 -9 0 -13 5 -10 10 3 6 2
10 -4 10 -19 0 -24 -23 -8 -35 10 -7 17 -21 17 -31 0 -10 13 -29 29 -42 20
-15 27 -29 24 -42 -3 -11 -2 -36 1 -55 6 -30 10 -35 27 -30 15 5 19 2 19 -14
0 -19 15 -26 42 -22 4 0 17 -13 30 -29 12 -17 27 -30 32 -30 6 0 4 5 -4 10
-12 8 -11 10 8 10 12 0 26 -8 29 -17 16 -41 38 -47 101 -27 18 5 24 2 28 -12
4 -17 15 -19 75 -20 39 -1 75 -6 82 -13 6 -6 25 -11 42 -11 64 0 104 -12 98
-28 -5 -11 -3 -13 8 -7 29 18 84 16 106 -4 20 -19 57 -22 82 -7 6 4 17 3 24
-2 7 -5 23 -7 37 -5 23 4 56 5 138 3 15 0 44 0 65 0 21 1 45 -4 53 -11 16 -13
218 -22 369 -17 17 1 46 0 65 -1 19 -2 63 -1 98 2 49 3 62 1 62 -11 0 -8 6
-12 15 -9 8 4 17 2 20 -4 4 -5 12 -9 18 -8 43 5 87 -2 87 -15 0 -8 7 -16 15
-20 8 -3 15 -12 15 -20 0 -25 23 -66 37 -66 19 0 10 -42 -12 -50 -15 -5 -12
-9 16 -20 41 -17 56 -35 54 -64 -1 -11 4 -27 11 -34 7 -7 11 -19 8 -27 -7 -16
21 -32 56 -34 153 -4 180 -16 135 -57 -13 -12 -30 -25 -37 -28 -10 -5 -10 -7
0 -12 6 -3 12 -13 12 -21 0 -13 3 -13 15 -3 13 11 15 8 15 -16 0 -16 7 -42 15
-57 13 -25 13 -29 -1 -34 -8 -3 -13 -12 -10 -19 10 -25 -11 -64 -30 -57 -10 4
-15 2 -11 -4 3 -5 0 -21 -7 -34 -7 -14 -16 -39 -21 -55 -6 -25 -8 -26 -14 -10
-6 17 -9 15 -20 -12 -8 -18 -17 -32 -22 -32 -18 0 -8 -18 14 -25 17 -6 19 -8
6 -12 -22 -5 -30 -60 -13 -78 11 -11 11 -14 -1 -19 -17 -6 -20 -42 -4 -52 8
-4 7 -9 -2 -14 -10 -7 -10 -12 -1 -23 13 -15 6 -100 -9 -105 -5 -2 -9 -10 -9
-18 0 -21 28 -5 33 19 3 15 5 12 6 -10 0 -17 6 -33 11 -35 6 -2 12 -17 13 -33
2 -22 7 -30 22 -30 13 0 21 -8 23 -23 2 -12 7 -22 12 -22 4 0 10 -9 13 -20 3
-12 14 -20 26 -20 12 0 21 -4 21 -9 0 -5 20 -12 44 -15 24 -4 47 -13 50 -21 4
-13 32 -14 168 -10 178 5 228 0 228 -21 0 -8 -5 -14 -11 -14 -8 0 -8 -4 -2
-12 6 -7 13 -40 16 -73 3 -33 12 -64 19 -70 7 -6 21 -20 31 -32 19 -21 19 -22
-5 -16 -18 5 -21 3 -11 -7 6 -7 9 -19 6 -26 -3 -8 -1 -14 5 -14 6 0 12 5 14
11 2 7 9 5 17 -5 12 -14 12 -16 -3 -10 -25 10 -19 -12 9 -30 14 -9 25 -23 25
-30 0 -19 73 -37 147 -38 12 0 24 -6 27 -14 4 -10 25 -14 76 -14 47 0 72 -4
75 -12 4 -10 38 -13 123 -12 65 0 122 3 127 6 15 9 116 19 225 23 75 3 114 10
162 28 35 14 81 28 103 32 22 3 51 9 65 11 14 3 55 7 91 8 36 2 79 10 95 19
16 8 46 19 67 25 35 10 39 9 48 -11 6 -12 29 -31 52 -43 32 -15 42 -26 44 -47
3 -48 18 -54 132 -50 61 1 110 -2 117 -8 15 -12 99 -28 179 -34 33 -3 72 -7
87 -9 15 -3 30 -1 34 5 4 8 9 7 15 -2 8 -12 11 -11 19 1 5 8 10 10 10 4 0 -6
17 -9 43 -7 143 12 239 27 287 45 30 11 82 29 115 41 97 33 115 41 115 53 0 6
9 23 21 38 15 20 20 37 17 66 -2 28 0 40 9 40 7 0 13 7 13 15 0 7 7 18 15 23
13 6 14 14 6 34 -5 14 -7 28 -5 31 3 3 1 15 -5 26 -10 18 -9 20 6 14 16 -6 16
-5 5 10 -11 13 -11 21 2 49 18 38 14 106 -6 120 -10 6 -10 8 0 8 6 0 12 7 12
15 0 11 13 14 58 13 31 0 66 -6 77 -11 11 -6 31 -11 45 -12 31 -1 70 -14 70
-24 0 -4 24 -6 53 -3 40 3 56 0 66 -12 7 -9 23 -16 36 -16 12 0 25 -3 29 -8 4
-4 17 -7 29 -8 12 -1 37 -2 55 -2 25 -2 32 -6 32 -22 0 -21 15 -27 25 -10 9
14 21 12 39 -6 9 -8 20 -12 26 -9 5 3 16 3 23 -2 6 -4 40 -6 75 -5 34 2 62 -1
62 -5 0 -20 59 -32 132 -29 51 3 78 0 81 -7 2 -6 21 -11 43 -10 21 1 46 -3 55
-8 9 -5 32 -4 54 2 32 9 40 8 59 -10 19 -18 27 -19 57 -11 43 13 94 19 193 24
43 3 83 9 89 15 6 6 17 11 24 11 7 0 13 4 13 9 0 5 12 12 28 16 36 8 63 32 86
78 11 20 23 37 28 37 4 0 8 7 8 16 0 9 9 27 20 41 11 14 20 32 20 40 0 8 5 11
10 8 13 -8 13 1 -1 26 -7 14 -7 24 0 33 13 15 -5 157 -22 171 -14 11 -10 57 5
66 19 12 -1 26 -28 21 -15 -3 -25 -1 -23 4 3 5 11 21 19 36 14 29 6 53 -10 28
-7 -12 -12 -12 -22 -2 -10 10 -10 15 2 23 13 8 13 11 -3 20 -9 6 -15 14 -12
20 4 5 -10 18 -29 30 -20 12 -36 27 -36 34 0 7 -20 18 -45 25 -25 7 -45 17
-45 22 0 5 -10 18 -22 29 -23 19 -23 19 -3 34 45 34 56 46 50 55 -10 16 14 50
35 50 35 0 70 22 70 44 0 40 21 96 35 96 17 0 15 31 -3 53 -10 12 -9 16 8 20
12 3 20 13 20 26 0 12 5 21 10 21 7 0 7 6 0 20 -7 13 -7 20 -1 20 6 0 8 26 6
65 -3 56 -1 66 15 75 19 10 19 22 -2 67 -8 17 -8 26 3 39 7 9 19 32 26 52 10
29 9 39 -2 55 -13 18 -12 22 7 39 12 10 25 18 30 18 4 0 8 5 8 11 0 5 -4 8 -9
4 -6 -3 -14 2 -19 11 -10 18 18 78 38 80 21 3 22 4 11 18 -10 11 -8 16 6 24
10 6 15 14 11 18 -5 4 -3 13 3 21 9 10 8 13 -2 13 -10 0 -10 3 -2 11 6 6 9 18
6 25 -3 9 2 14 14 14 15 0 19 7 19 36 0 20 6 40 15 45 11 8 11 12 2 16 -16 6
-17 33 -2 33 8 0 8 5 -1 15 -10 12 -10 15 1 15 8 0 5 6 -7 15 -19 14 -18 15 9
40 15 15 27 37 27 50 0 18 5 25 20 25 22 0 27 15 8 23 -7 3 -8 6 -2 6 7 1 8
16 0 51 -9 44 -7 55 12 90 11 22 17 40 11 40 -15 0 -10 48 7 58 14 8 14 13 0
62 -11 36 -13 56 -6 60 11 7 -15 80 -32 91 -5 3 0 23 12 46 22 44 18 76 -15
103 -13 11 -15 23 -10 56 3 23 2 45 -3 48 -5 3 -7 16 -5 28 2 13 -1 37 -8 53
-7 17 -13 33 -13 37 -1 3 -17 25 -36 48 -21 25 -35 53 -36 72 -1 17 -9 35 -17
39 -8 5 -18 24 -21 42 -3 19 -20 51 -36 73 -16 21 -30 49 -30 61 0 12 -11 33
-25 47 -27 27 -32 55 -14 73 16 16 2 80 -19 93 -47 27 -52 36 -42 70 7 23 6
38 -1 47 -6 7 -8 13 -4 13 5 0 0 8 -9 19 -16 17 -16 20 -1 35 10 9 14 23 11
31 -3 8 2 19 11 24 13 7 14 12 6 23 -6 7 -7 22 -3 33 5 13 1 24 -13 36 -13 10
-17 20 -12 29 5 8 10 29 11 49 1 19 -1 29 -5 22 -6 -9 -11 -9 -20 2 -9 11 -8
17 2 26 10 7 12 27 9 66 -3 35 -1 55 6 55 11 0 10 14 -4 92 -4 23 -2 43 5 51
8 11 7 22 -4 44 -15 29 -12 63 5 63 4 0 8 11 8 24 0 18 -8 28 -28 35 -16 5
-31 7 -34 4 -3 -4 -6 -2 -6 4 0 16 28 24 34 10 3 -7 3 -1 0 13 -5 26 -19 61
-36 94 -5 10 -6 36 -3 58 6 31 3 44 -12 60 -13 15 -15 22 -6 25 8 3 11 14 7
27 -3 12 -1 41 5 65 10 45 6 71 -11 71 -15 0 -35 24 -31 37 2 6 -1 14 -6 18
-14 8 -14 42 0 47 5 2 7 11 4 21 -4 9 -11 15 -15 12 -4 -3 -14 3 -21 12 -12
14 -11 15 9 9 21 -7 21 -6 11 18 -7 14 -16 26 -20 26 -5 0 -6 7 -3 15 4 8 1
15 -5 15 -6 0 -11 6 -11 14 0 7 -7 19 -15 26 -8 7 -14 18 -14 24 4 24 -14 67
-32 77 -12 6 -19 21 -19 37 0 16 -4 32 -9 38 -6 5 -11 29 -12 54 -1 25 -8 57
-16 73 -7 15 -15 58 -16 95 -1 50 -6 70 -19 80 -24 18 -23 49 2 57 23 7 25 16
8 34 -11 10 -10 11 5 6 16 -7 24 5 11 18 -17 16 -26 294 -11 300 7 3 0 9 -15
15 -30 12 -54 71 -34 85 8 5 7 10 -2 15 -7 5 -10 15 -7 24 3 8 -1 21 -10 28
-18 15 -20 56 -2 63 9 4 8 8 -3 16 -12 8 -12 11 -1 11 10 0 11 3 2 13 -6 8 -8
17 -4 21 4 4 -3 9 -15 13 -14 3 -22 13 -22 27 0 13 -12 45 -26 72 -14 27 -26
66 -28 86 -1 20 -9 45 -17 55 -26 31 -49 72 -49 86 0 8 -6 20 -14 27 -8 6 -12
18 -9 26 3 8 -1 14 -10 14 -8 0 -15 6 -14 13 1 35 -4 57 -14 57 -16 0 -39 26
-39 44 0 8 -14 25 -30 38 -26 19 -30 28 -30 70 0 26 -4 48 -10 48 -5 0 -7 6
-4 13 2 7 -5 23 -16 35 -11 12 -16 22 -11 22 13 0 -26 40 -66 69 -18 12 -33
31 -33 41 0 10 -5 22 -11 26 -6 3 -9 17 -6 29 2 15 -2 26 -12 29 -42 16 -60
33 -49 44 9 9 8 12 -4 12 -9 0 -18 12 -21 28 -4 18 -16 33 -32 40 -18 8 -25
18 -21 28 4 10 -5 25 -25 41 -23 19 -29 32 -25 48 4 14 0 28 -10 36 -8 7 -13
21 -11 31 3 10 1 21 -4 24 -5 3 -9 -1 -10 -8 0 -7 -6 3 -13 22 -9 23 -10 41
-4 53 5 10 6 33 2 50 -4 18 -6 56 -5 85 1 30 -3 60 -9 67 -8 9 -7 17 3 27 12
11 17 63 7 63 -1 0 -4 11 -6 25 -1 14 -5 39 -9 55 -3 17 -7 39 -8 51 -1 11 -8
28 -15 36 -10 13 -10 17 0 20 11 4 11 8 0 21 -8 9 -13 37 -11 69 0 29 -1 85
-5 125 -4 46 -2 74 5 78 6 5 4 12 -7 19 -15 12 -20 28 -23 75 -1 7 -7 11 -15
8 -8 -3 -22 0 -32 7 -16 12 -16 27 0 67 5 11 -2 27 -18 44 -14 15 -23 31 -21
36 3 4 -13 32 -35 61 -22 29 -38 58 -37 63 4 12 64 12 417 3 300 -8 505 2 528
26 28 28 3 35 -88 25 -47 -5 -152 -9 -235 -10 -152 -1 -560 17 -604 27 -35 8
-56 31 -42 48 9 11 8 17 -2 27 -11 12 -47 90 -47 104 0 17 73 28 322 51 156
15 303 28 328 31 98 9 388 55 443 71 32 9 63 22 68 29 15 18 0 36 -25 30 -11
-3 -57 -14 -101 -25 -83 -21 -203 -41 -277 -46 -24 -2 -144 -13 -268 -24 -410
-38 -521 -45 -561 -36 -23 4 -27 10 -25 40 1 20 -4 40 -11 45 -9 8 -7 17 5 39
17 30 33 38 162 85 41 15 95 36 120 46 25 10 70 27 100 38 91 32 342 145 388
174 26 17 42 35 42 47 0 24 -31 27 -49 6 -19 -23 -299 -156 -328 -156 -8 0
-28 -8 -46 -17 -33 -17 -258 -98 -312 -112 -17 -4 -40 -13 -52 -19 -12 -7 -26
-12 -31 -12 -10 0 -8 62 2 79 4 5 -1 17 -10 25 -9 9 -13 23 -10 32 8 20 -15
104 -29 104 -5 0 -4 4 4 9 13 8 12 15 -4 50 -10 22 -27 43 -37 47 -16 5 -18
12 -13 43 5 28 2 41 -15 58 -11 12 -20 27 -20 33 0 5 -8 10 -17 11 -11 0 -13
3 -5 6 14 6 16 43 2 43 -5 0 -10 13 -10 29 0 17 -4 33 -10 36 -5 3 -10 18 -10
33 0 17 -11 36 -32 55 -18 15 -25 25 -15 21 10 -4 17 -1 17 6 0 16 -32 70 -42
70 -4 0 -8 7 -8 15 0 8 -5 15 -11 15 -5 0 -7 -6 -3 -12 5 -9 2 -8 -9 1 -17 13
-16 15 4 38 15 15 18 23 9 23 -10 0 -11 3 -3 11 8 8 8 20 3 35 -6 15 -5 24 3
28 8 3 7 8 -5 16 -9 6 -15 17 -12 24 3 8 1 17 -4 20 -5 3 -7 17 -4 31 4 24 -2
45 -30 99 -7 12 -6 21 1 25 12 8 3 50 -10 52 -20 3 -25 5 -37 13 -7 4 -12 18
-11 29 3 39 -1 47 -31 79 -22 22 -27 34 -18 39 9 6 8 11 -2 24 -8 10 -16 29
-17 44 -2 14 -6 33 -10 41 -11 29 -8 68 5 63 6 -3 12 0 12 6 0 6 -4 11 -10 11
-6 0 -6 10 1 27 6 16 6 29 0 32 -12 8 -10 84 3 93 6 4 6 11 -1 20 -7 8 -11 51
-11 105 1 61 -3 98 -12 108 -10 11 -10 18 -1 29 7 9 8 17 2 20 -5 3 -12 0 -14
-6 -4 -9 -6 -8 -6 2 0 8 4 22 9 30 6 10 3 21 -12 37 -14 15 -19 29 -14 46 3
14 0 32 -9 43 -8 10 -15 31 -15 46 0 19 -10 35 -30 50 -16 12 -30 29 -30 39 0
9 -6 22 -14 29 -8 6 -13 17 -10 24 3 7 -7 25 -21 40 -15 16 -24 35 -21 42 3 8
2 14 -3 14 -15 0 -59 45 -63 64 -1 10 -15 28 -30 39 -22 16 -30 18 -41 8 -12
-9 -15 -8 -13 6 1 16 -8 18 -71 18 -40 0 -74 -4 -76 -8z m191 -282 c4 0 8 -9
10 -20 1 -11 7 -24 12 -29 13 -13 13 -29 0 -21 -5 3 -8 0 -5 -7 3 -7 7 -26 9
-43 2 -16 7 -39 12 -49 5 -12 4 -17 -3 -13 -12 7 -2 -61 12 -83 6 -9 4 -11 -6
-4 -11 6 -11 3 1 -16 9 -14 21 -38 28 -54 12 -27 12 -28 -4 -15 -16 13 -16 12
-7 -6 12 -22 21 -105 29 -270 11 -232 16 -283 29 -304 3 -6 -2 -11 -12 -11
-14 0 -45 56 -128 227 -60 125 -135 272 -167 327 -33 59 -54 106 -50 115 3 9
38 66 77 126 39 61 81 127 94 148 23 37 24 38 43 20 11 -10 23 -18 26 -18z
m-3071 -605 c37 -21 81 -53 98 -70 16 -16 35 -30 42 -30 7 0 13 -3 13 -8 0 -4
12 -13 28 -19 47 -21 53 -53 57 -295 1 -123 6 -235 10 -251 6 -22 4 -26 -8
-21 -8 3 -30 41 -48 85 -24 57 -47 94 -80 127 -45 45 -69 90 -179 337 -27 61
-49 124 -55 158 -6 37 -6 37 24 32 16 -3 60 -23 98 -45z m2828 -1188 c92 -35
127 -108 89 -185 -20 -40 -110 -134 -146 -153 l-28 -15 0 80 c0 99 -25 171
-81 234 -36 42 -38 47 -22 56 23 14 134 4 188 -17z m-433 -73 c-2 -8 -6 -43
-9 -79 -7 -88 22 -166 84 -227 41 -39 45 -48 20 -44 -57 10 -323 84 -333 92
-45 37 37 161 160 241 59 38 84 43 78 17z m-1462 -167 c0 -4 -7 -17 -15 -29
-27 -38 -45 -103 -46 -164 -1 -48 4 -72 28 -119 l30 -60 -24 0 c-36 0 -154 57
-191 93 -48 47 -57 91 -29 147 25 50 72 86 157 118 58 22 90 27 90 14z m384
-23 c31 -12 76 -39 101 -61 43 -38 75 -102 59 -118 -5 -4 -75 -42 -156 -84
l-147 -76 22 47 c31 68 31 189 -1 257 -12 26 -19 53 -16 58 9 13 69 3 138 -23z
m-1184 -39 c0 -5 -5 -10 -11 -10 -5 0 -7 5 -4 10 3 6 8 10 11 10 2 0 4 -4 4
-10z m2000 -693 c54 -27 28 -57 -62 -73 -24 -4 -39 -13 -43 -25 -4 -10 -11
-19 -16 -19 -5 0 -9 -6 -8 -12 7 -54 -15 -58 -55 -11 -25 30 -32 32 -98 35
-54 2 -73 7 -82 20 -14 23 10 41 94 67 103 32 226 40 270 18z m-1580 -1221 c0
-3 -4 -8 -10 -11 -5 -3 -10 -1 -10 4 0 6 5 11 10 11 6 0 10 -2 10 -4z m96
-808 c-3 -13 -6 -30 -6 -38 -1 -8 -6 -4 -11 9 -11 28 -5 51 12 51 7 0 9 -9 5
-22z m-406 -1796 c0 -4 -9 -8 -20 -9 -11 -1 -20 2 -20 5 0 4 9 8 20 9 11 1 20
-2 20 -5z m-3 -344 c-3 -8 -6 -5 -6 6 -1 11 2 17 5 13 3 -3 4 -12 1 -19z
m-337 -2002 c0 -3 -4 -8 -10 -11 -5 -3 -10 -1 -10 4 0 6 5 11 10 11 6 0 10 -2
10 -4z m5780 -62 c0 -2 -7 -4 -15 -4 -8 0 -15 4 -15 10 0 5 7 7 15 4 8 -4 15
-8 15 -10z m-5041 -1980 c10 -10 11 -14 2 -9 -9 5 -12 3 -9 -6 3 -8 10 -13 15
-12 7 1 9 -29 7 -80 -4 -97 -9 -132 -23 -170 -6 -16 -9 -33 -5 -38 3 -5 0 -9
-5 -9 -6 0 -11 -7 -11 -15 0 -9 -11 -27 -25 -41 -36 -36 -92 -31 -140 13 -64
58 -80 136 -50 236 20 66 49 103 103 132 53 29 114 28 141 -1z m4365 -88 c51
-21 97 -56 90 -67 -3 -5 0 -8 7 -7 7 2 18 -8 25 -22 7 -14 19 -25 26 -25 7 0
13 -10 12 -22 0 -12 3 -20 8 -17 4 3 8 3 8 0 0 -2 3 -12 7 -22 4 -12 3 -15 -5
-10 -9 5 -10 1 -3 -16 15 -41 1 -88 -32 -108 -66 -40 -405 -16 -505 36 -77 40
-132 91 -132 121 0 36 66 96 134 122 30 11 72 30 93 41 34 19 49 21 134 16 53
-2 113 -12 133 -20z m-3541 -283 c57 -28 138 -93 132 -103 -3 -4 5 -16 18 -26
21 -19 21 -19 7 1 -11 16 -11 17 0 8 7 -7 14 -21 15 -30 1 -10 5 -33 9 -51 7
-29 4 -36 -30 -67 -21 -19 -43 -35 -48 -35 -6 0 -29 -16 -50 -35 -22 -19 -36
-35 -31 -35 5 0 -1 -7 -14 -16 -57 -40 -214 -24 -294 30 -134 91 -84 266 103
361 76 39 104 39 183 -2z m1625 -143 c79 -26 130 -55 166 -94 16 -17 25 -24
21 -16 -5 8 -6 13 -2 10 3 -3 5 -8 4 -11 -1 -3 5 -14 13 -24 9 -11 10 -16 3
-11 -7 4 -13 2 -13 -3 0 -6 4 -11 9 -11 10 0 26 -56 22 -80 -11 -73 -68 -108
-186 -114 -199 -10 -335 59 -335 171 0 63 18 98 62 121 24 12 68 35 98 52 30
16 60 30 66 30 6 0 38 -9 72 -20z"/>
<path d="M4080 11910 c0 -5 5 -10 11 -10 5 0 7 5 4 10 -3 6 -8 10 -11 10 -2 0
-4 -4 -4 -10z"/>
<path d="M4595 10680 c3 -5 8 -10 11 -10 2 0 4 5 4 10 0 6 -5 10 -11 10 -5 0
-7 -4 -4 -10z"/>
<path d="M5025 8150 c-3 -5 -1 -10 4 -10 6 0 11 5 11 10 0 6 -2 10 -4 10 -3 0
-8 -4 -11 -10z"/>
<path d="M9615 6200 c3 -5 8 -10 11 -10 2 0 4 5 4 10 0 6 -5 10 -11 10 -5 0
-7 -4 -4 -10z"/>
<path d="M4695 5930 c3 -5 8 -10 11 -10 2 0 4 5 4 10 0 6 -5 10 -11 10 -5 0
-7 -4 -4 -10z"/>
<path d="M10200 3650 c0 -5 5 -10 11 -10 5 0 7 5 4 10 -3 6 -8 10 -11 10 -2 0
-4 -4 -4 -10z"/>
<path d="M9180 769 c0 -5 5 -7 10 -4 6 3 10 8 10 11 0 2 -4 4 -10 4 -5 0 -10
-5 -10 -11z"/>
</g>
</svg>
